<?xml version="1.0" standalone="no"?>
<!DOCTYPE svg PUBLIC "-//W3C//DTD SVG 20010904//EN"
 "http://www.w3.org/TR/2001/REC-SVG-20010904/DTD/svg10.dtd">
<svg version="1.0" xmlns="http://www.w3.org/2000/svg"
 width="260.000000pt" height="260.000000pt" viewBox="0 0 260.000000 260.000000"
 preserveAspectRatio="xMidYMid meet">
<metadata>
Created by potrace 1.11, written by Peter Selinger 2001-2013
</metadata>
<g transform="translate(0.000000,260.000000) scale(0.100000,-0.100000)"
fill="#000000" stroke="none">
<path d="M42 1838 c-17 -17 -17 -1009 0 -1026 17 -17 2499 -17 2516 0 17 17
17 1009 0 1026 -17 17 -2499 17 -2516 0z m2467 -513 l0 -465 -1210 1 -1209 0
0 465 0 464 1210 0 1209 0 0 -465z"/>
<path d="M1155 1600 c-3 -5 -1 -10 4 -10 6 0 11 5 11 10 0 6 -2 10 -4 10 -3 0
-8 -4 -11 -10z"/>
<path d="M649 1585 c-1 -11 -3 -92 -3 -180 -1 -88 -5 -166 -10 -173 -4 -6 -4
-12 1 -12 4 0 8 -35 8 -77 0 -78 0 -78 28 -81 22 -3 27 1 27 18 0 21 0 21 31
-2 42 -31 135 -32 176 -2 89 66 92 266 6 334 -14 11 -34 20 -45 20 -11 0 -17
4 -14 8 8 14 -94 -6 -120 -23 l-23 -15 -3 93 c-3 85 -5 92 -23 92 -11 -1 -23
4 -27 10 -5 6 -8 1 -9 -10z m203 -223 c-1 -8 2 -11 8 -7 5 3 18 -7 28 -23 31
-52 13 -202 -24 -202 -8 0 -14 -4 -14 -10 0 -16 -73 -12 -97 5 -31 22 -46 78
-40 147 6 63 33 111 49 86 5 -9 8 -8 8 5 0 15 7 18 43 15 28 -2 41 -7 39 -16z"/>
<path d="M1903 1581 c-6 -3 -11 -40 -11 -81 0 -109 1 -105 -18 -89 -30 24 -77
35 -114 26 -19 -5 -43 -9 -52 -10 -9 -1 -15 -4 -12 -8 2 -4 -2 -9 -10 -12 -29
-11 -56 -91 -56 -163 0 -87 28 -148 80 -176 48 -26 131 -20 165 12 l25 23 0
-21 c0 -18 6 -22 30 -22 l30 0 0 263 0 262 -24 1 c-13 1 -28 -1 -33 -5z m-47
-225 c24 -20 28 -32 32 -89 5 -80 -10 -130 -44 -146 -78 -35 -147 15 -146 107
1 71 3 81 18 96 8 9 12 16 7 16 -4 1 3 10 16 20 32 27 83 26 117 -4z"/>
<path d="M1068 1557 c-19 -15 -13 -67 8 -67 8 0 14 -5 14 -10 0 -15 39 12 43
30 5 23 -14 60 -32 60 -9 0 -23 -6 -33 -13z"/>
<path d="M595 1440 c-3 -5 -1 -10 4 -10 6 0 11 5 11 10 0 6 -2 10 -4 10 -3 0
-8 -4 -11 -10z"/>
<path d="M1326 1415 c-34 -23 -36 -23 -36 -5 0 16 -7 20 -30 20 l-30 0 0 -184
0 -184 25 -4 c14 -3 29 0 34 6 5 6 9 59 9 119 0 59 6 122 12 141 11 35 33 51
52 39 7 -3 8 -1 4 5 -5 8 5 12 31 12 73 0 83 -23 83 -189 l0 -131 35 0 35 0
-2 138 c-2 150 -7 179 -43 212 -37 35 -131 38 -179 5z"/>
<path d="M1060 1415 c-1 -8 -1 -71 -1 -140 0 -241 -4 -215 35 -215 l35 0 -1
185 -1 185 -34 0 c-22 0 -33 -5 -33 -15z"/>
<path d="M190 1200 c0 -5 5 -10 11 -10 5 0 7 5 4 10 -3 6 -8 10 -11 10 -2 0
-4 -4 -4 -10z"/>
<path d="M1425 919 c-3 -4 2 -6 10 -5 21 3 28 13 10 13 -9 0 -18 -4 -20 -8z"/>
</g>
</svg>
